<svg width="25" height="23" viewBox="0 0 25 23" fill="none" xmlns="http://www.w3.org/2000/svg">
<path d="M22.1905 12.9119L22.1905 12.9119C22.1604 13.0447 22.0423 13.1389 21.9061 13.1389H9.18281H8.26389L8.44803 14.0392L8.7321 15.4281L8.85476 16.0278H9.46689H21.117C21.3041 16.0278 21.4429 16.2016 21.4014 16.3841L21.1619 17.4377L21.0299 18.0186L21.5658 18.2787C22.1285 18.5519 22.5139 19.1275 22.5139 19.7917C22.5139 20.7198 21.7615 21.4722 20.8333 21.4722C19.9052 21.4722 19.1528 20.7198 19.1528 19.7917C19.1528 19.3215 19.3452 18.8975 19.6578 18.5913L20.9702 17.3056H19.1329H10.0337H8.19626L9.50885 18.5913C9.82145 18.8975 10.0139 19.3215 10.0139 19.7917C10.0139 20.7198 9.26148 21.4722 8.33333 21.4722C7.40519 21.4722 6.65278 20.7198 6.65278 19.7917C6.65278 19.1695 6.99097 18.6253 7.49764 18.334L7.96704 18.064L7.85853 17.5335L4.80957 2.62748L4.6869 2.02778H4.07478H1.04167C0.880576 2.02778 0.75 1.8972 0.75 1.73611V1.04167C0.75 0.880577 0.880576 0.75 1.04167 0.75H5.49171C5.6303 0.75 5.74971 0.847509 5.77745 0.983161L5.77746 0.983201L6.17529 2.92808L6.29796 3.52778H6.91007H23.9579C24.145 3.52778 24.2838 3.70157 24.2423 3.88409L22.1905 12.9119Z" stroke="#4E704F" stroke-width="1.5"/>
</svg>
