<svg width="32" height="32" viewBox="0 0 32 32" fill="none" xmlns="http://www.w3.org/2000/svg">
<circle cx="16" cy="16" r="16" fill="white"/>
<path d="M10.9893 23.6964V22.0164H11.1357L12.2949 23.4756H12.2181V22.0164H12.3933V23.6964H12.2469L11.0901 22.2372H11.1669V23.6964H10.9893ZM12.7928 23.6964L13.5608 22.0164H13.736L14.504 23.6964H14.3168L13.6112 22.1196H13.6832L12.9776 23.6964H12.7928ZM13.0952 23.2476L13.148 23.1036H14.1248L14.1776 23.2476H13.0952ZM15.1439 23.6964V22.17H14.5535V22.0164H15.9119V22.17H15.3215V23.6964H15.1439ZM16.9596 23.7108C16.7452 23.7108 16.5764 23.6492 16.4532 23.526C16.33 23.4027 16.2684 23.2203 16.2684 22.9788V22.0164H16.446V22.9716C16.446 23.1699 16.4908 23.3163 16.5804 23.4108C16.67 23.5052 16.7964 23.5524 16.9596 23.5524C17.1244 23.5524 17.2516 23.5052 17.3412 23.4108C17.4308 23.3163 17.4756 23.1699 17.4756 22.9716V22.0164H17.6484V22.9788C17.6484 23.2203 17.5868 23.4027 17.4636 23.526C17.342 23.6492 17.174 23.7108 16.9596 23.7108ZM18.3036 23.6964V22.0164H18.9324C19.0748 22.0164 19.1972 22.0395 19.2996 22.086C19.402 22.1307 19.4804 22.1964 19.5348 22.2828C19.5908 22.3676 19.6188 22.4708 19.6188 22.5924C19.6188 22.7108 19.5908 22.8132 19.5348 22.8996C19.4804 22.9844 19.402 23.0499 19.2996 23.0964C19.1972 23.1411 19.0748 23.1636 18.9324 23.1636H18.402L18.4812 23.082V23.6964H18.3036ZM19.4508 23.6964L19.0188 23.0868H19.2108L19.6452 23.6964H19.4508ZM18.4812 23.0964L18.402 23.0124H18.9276C19.0956 23.0124 19.2228 22.9755 19.3092 22.902C19.3972 22.8284 19.4412 22.7252 19.4412 22.5924C19.4412 22.458 19.3972 22.3539 19.3092 22.2804C19.2228 22.2068 19.0956 22.17 18.9276 22.17H18.402L18.4812 22.086V23.0964ZM19.8892 23.6964L20.6572 22.0164H20.8324L21.6004 23.6964H21.4132L20.7076 22.1196H20.7796L20.074 23.6964H19.8892ZM20.1916 23.2476L20.2444 23.1036H21.2212L21.274 23.2476H20.1916Z" fill="#4E704F"/>
<path d="M9.72656 21.0864V19.1964H10.5042C10.6716 19.1964 10.8147 19.2234 10.9335 19.2774C11.0541 19.3314 11.1468 19.4088 11.2116 19.5096C11.2764 19.6104 11.3088 19.7301 11.3088 19.8687C11.3088 20.0073 11.2764 20.127 11.2116 20.2278C11.1468 20.3286 11.0541 20.406 10.9335 20.46C10.8147 20.514 10.6716 20.541 10.5042 20.541H9.92096L10.0776 20.3763V21.0864H9.72656ZM10.0776 20.4141L9.92096 20.244H10.488C10.6428 20.244 10.7589 20.2116 10.8363 20.1468C10.9155 20.0802 10.9551 19.9875 10.9551 19.8687C10.9551 19.7481 10.9155 19.6554 10.8363 19.5906C10.7589 19.5258 10.6428 19.4934 10.488 19.4934H9.92096L10.0776 19.3206V20.4141ZM11.7943 21.0864V19.1964H12.5719C12.7393 19.1964 12.8824 19.2234 13.0012 19.2774C13.1218 19.3314 13.2145 19.4088 13.2793 19.5096C13.3441 19.6104 13.3765 19.7301 13.3765 19.8687C13.3765 20.0073 13.3441 20.127 13.2793 20.2278C13.2145 20.3268 13.1218 20.4033 13.0012 20.4573C12.8824 20.5095 12.7393 20.5356 12.5719 20.5356H11.9887L12.1453 20.3763V21.0864H11.7943ZM13.0309 21.0864L12.553 20.4006H12.9283L13.4089 21.0864H13.0309ZM12.1453 20.4141L11.9887 20.2467H12.5557C12.7105 20.2467 12.8266 20.2134 12.904 20.1468C12.9832 20.0802 13.0228 19.9875 13.0228 19.8687C13.0228 19.7481 12.9832 19.6554 12.904 19.5906C12.8266 19.5258 12.7105 19.4934 12.5557 19.4934H11.9887L12.1453 19.3206V20.4141ZM14.2282 19.9821H15.1678V20.271H14.2282V19.9821ZM14.2552 20.7921H15.3217V21.0864H13.9042V19.1964H15.2839V19.4907H14.2552V20.7921ZM16.3805 21.0864L15.5543 19.1964H15.935L16.6721 20.9055H16.4534L17.1986 19.1964H17.5496L16.7261 21.0864H16.3805ZM18.208 19.9821H19.1476V20.271H18.208V19.9821ZM18.235 20.7921H19.3015V21.0864H17.884V19.1964H19.2637V19.4907H18.235V20.7921ZM19.8278 21.0864V19.1964H20.1167L21.302 20.6517H21.1589V19.1964H21.5072V21.0864H21.2183L20.033 19.6311H20.1761V21.0864H19.8278ZM22.5321 21.0864V19.4934H21.9057V19.1964H23.5095V19.4934H22.8831V21.0864H22.5321Z" fill="#4E704F"/>
<path d="M15.9498 16.4107V10.8608C16.2647 9.1227 17.2446 8.83233 19.2451 9.12645C18.5151 10.886 17.9283 11.4578 16.4123 11.3811M15.1404 13.1155C14.7345 12.1742 14.7448 11.6094 13.1748 11.6702C13.7373 12.923 14.1975 13.1713 15.1404 13.2311M13.5795 16.5264C13.5316 15.856 13.6778 15.5969 14.2732 15.5508M14.5623 15.5436C14.4559 15.5419 14.3598 15.5441 14.2732 15.5508M14.2732 15.5508C14.4166 14.8869 14.5602 14.619 15.1404 14.6764M18.2045 16.4107C18.2599 15.7876 18.1474 15.5339 17.5685 15.5343M17.2795 15.5508C17.3867 15.54 17.4827 15.5343 17.5685 15.5343M17.5685 15.5343C17.5236 14.8231 17.3375 14.5617 16.5279 14.503" stroke="#4E704F" stroke-width="0.4" stroke-linecap="round" stroke-linejoin="round"/>
<path d="M27.9502 16.5263C27.9502 23.0958 22.6246 28.4213 16.0552 28.4213C9.48573 28.4213 4.16016 23.0958 4.16016 16.5263C4.16016 9.95692 9.48573 4.63135 16.0552 4.63135C22.6246 4.63135 27.9502 9.95692 27.9502 16.5263Z" stroke="#4E704F" stroke-width="0.3"/>
<path d="M27.4102 16.4663C27.4102 22.7375 22.3264 27.8213 16.0552 27.8213C9.784 27.8213 4.7002 22.7375 4.7002 16.4663C4.7002 10.1951 9.784 5.11133 16.0552 5.11133C22.3264 5.11133 27.4102 10.1951 27.4102 16.4663Z" stroke="#4E704F" stroke-width="0.1"/>
<path d="M7.24387 5.59405C7.29058 5.55412 7.33921 5.52826 7.38985 5.51653C7.44061 5.50345 7.49143 5.50669 7.54237 5.52628C7.59403 5.54524 7.64362 5.58241 7.69111 5.63782L7.97698 5.97124L7.89928 6.03772L7.61998 5.71192C7.56811 5.65144 7.51375 5.61901 7.45687 5.6146C7.40008 5.60884 7.34434 5.62939 7.28965 5.67619C7.24879 5.71114 7.22023 5.75011 7.20397 5.79307C7.1878 5.83471 7.18477 5.87836 7.19488 5.92405C7.20508 5.96839 7.2289 6.01243 7.2664 6.05617L7.52509 6.35788L7.44739 6.42436L6.75195 5.61319L6.82964 5.54671L7.168 5.94136L7.12735 5.92495C7.10998 5.86783 7.11136 5.81041 7.13149 5.75278C7.15099 5.6944 7.18846 5.64148 7.24387 5.59405Z" fill="#535353"/>
<path d="M8.61147 5.46753C8.54718 5.51292 8.48127 5.5395 8.41377 5.54721C8.34573 5.55417 8.28129 5.54382 8.22054 5.51625C8.15919 5.48787 8.10687 5.44313 8.06352 5.38208C8.0202 5.321 7.99482 5.25786 7.98735 5.19261C7.98069 5.12679 7.99065 5.06451 8.01723 5.00577C8.04405 4.94568 8.08608 4.89543 8.14332 4.85499C8.20134 4.81401 8.26215 4.79103 8.32572 4.78608C8.38953 4.77981 8.45133 4.79138 8.51109 4.82087C8.57028 4.84958 8.62185 4.89486 8.66574 4.95672C8.6685 4.96062 8.67117 4.96521 8.67372 4.97046C8.67648 4.97436 8.67954 4.97868 8.68287 4.98336L8.14539 5.36304L8.1012 5.30082L8.59401 4.95269L8.57859 5.00063C8.54691 4.95599 8.50908 4.92338 8.46501 4.90277C8.42121 4.88084 8.37588 4.87173 8.32905 4.87542C8.28225 4.87911 8.23728 4.89618 8.19414 4.92663C8.15181 4.95654 8.12073 4.99319 8.1009 5.03657C8.08107 5.07995 8.07423 5.12591 8.08041 5.17445C8.08659 5.22296 8.10579 5.26994 8.13801 5.31536L8.14719 5.32827C8.18052 5.37525 8.22015 5.40954 8.26611 5.43117C8.31228 5.45145 8.361 5.45874 8.4123 5.45307C8.46381 5.44605 8.51349 5.42565 8.56134 5.39187C8.59896 5.36529 8.62914 5.33397 8.65185 5.29797C8.67534 5.2614 8.68911 5.22108 8.69319 5.17707L8.77857 5.19785C8.77446 5.25011 8.75775 5.29955 8.72841 5.34614C8.69985 5.39216 8.66088 5.43261 8.61147 5.46753Z" fill="#535353"/>
<path d="M9.68216 4.75052L9.59825 4.60607L9.58079 4.58456L9.44048 4.343C9.40817 4.28738 9.36755 4.25372 9.31859 4.24205C9.27047 4.2299 9.21563 4.24157 9.15407 4.27706C9.11168 4.30151 9.07544 4.33184 9.04535 4.36799C9.01529 4.40417 8.99372 4.44155 8.98061 4.48013L8.90234 4.43714C8.91923 4.38974 8.94662 4.34513 8.98451 4.30334C9.02192 4.26074 9.06641 4.22456 9.11798 4.19483C9.20282 4.14593 9.2804 4.12946 9.35072 4.14542C9.4214 4.16006 9.48158 4.21016 9.53123 4.29566L9.76697 4.70162L9.68216 4.75052ZM9.45995 4.88693C9.4109 4.91522 9.36347 4.93202 9.31772 4.93733C9.27233 4.94135 9.23186 4.93475 9.19634 4.91756C9.16034 4.89953 9.13148 4.87184 9.10979 4.83449C9.09002 4.80044 9.08009 4.76519 9.07997 4.72868C9.08021 4.69085 9.09383 4.65311 9.12077 4.6154C9.14807 4.5764 9.19292 4.5389 9.25529 4.50293L9.4811 4.37276L9.51941 4.43876L9.29612 4.56749C9.23291 4.60394 9.19532 4.64057 9.18341 4.67735C9.17228 4.71368 9.17639 4.74845 9.19568 4.78166C9.21737 4.81901 9.24929 4.84049 9.29141 4.84613C9.33353 4.85177 9.38078 4.83947 9.43319 4.80926C9.48308 4.78052 9.51941 4.74461 9.54215 4.70159C9.56525 4.65722 9.57257 4.60868 9.56414 4.55594L9.61955 4.60544C9.62798 4.65818 9.61889 4.70942 9.59225 4.75913C9.56642 4.80836 9.52235 4.85096 9.45995 4.88693Z" fill="#535353"/>
<path d="M10.2164 4.45192L9.73633 3.49735L9.82786 3.45178L10.3079 4.40635L10.2164 4.45192Z" fill="#535353"/>
<path d="M11.0039 4.08531C10.9384 4.11258 10.8804 4.11591 10.83 4.09527C10.7797 4.07463 10.7409 4.03203 10.7137 3.96744L10.438 3.3132L10.5325 3.27393L10.8058 3.92286C10.823 3.96357 10.8464 3.99072 10.8761 4.00437C10.9067 4.01763 10.9415 4.01616 10.9805 3.99993C11.0221 3.98259 11.0517 3.95628 11.0691 3.92097L11.1308 3.97482C11.1193 3.99936 11.1019 4.02117 11.0787 4.04019C11.0563 4.05882 11.0314 4.07388 11.0039 4.08531ZM10.4109 3.59742L10.3779 3.51912L10.81 3.33939L10.843 3.41769L10.4109 3.59742Z" fill="#535353"/>
<path d="M11.6911 2.99402C11.7497 2.97581 11.8047 2.97131 11.8559 2.98055C11.9078 2.98859 11.9533 3.01163 11.9926 3.04973C12.0327 3.08753 12.0638 3.14123 12.0857 3.21077L12.2181 3.62957L12.1204 3.65987L11.9911 3.2507C11.9671 3.17471 11.9298 3.12347 11.8791 3.09698C11.8291 3.06929 11.7697 3.06611 11.7009 3.08744C11.6496 3.10337 11.608 3.12785 11.5761 3.16085C11.5449 3.19265 11.525 3.2315 11.5163 3.2774C11.5083 3.3221 11.513 3.37193 11.5303 3.42683L11.6501 3.80582L11.5525 3.83609L11.2305 2.81729L11.3281 2.78699L11.4848 3.28268L11.4538 3.25157C11.4602 3.19229 11.484 3.14018 11.5252 3.09524C11.5661 3.04937 11.6214 3.01565 11.6911 2.99402Z" fill="#535353"/>
<path d="M12.787 3.75215C12.7523 3.75962 12.7177 3.76118 12.6833 3.7568C12.6499 3.75224 12.6194 3.74114 12.5919 3.72347L12.6218 3.63896C12.6445 3.65273 12.6677 3.66197 12.6914 3.66671C12.7162 3.67214 12.7422 3.67196 12.7694 3.66608C12.8023 3.659 12.8283 3.64358 12.8477 3.61979C12.8681 3.59672 12.884 3.55988 12.8954 3.50933L12.9193 3.39074L12.9272 3.37286L13.0796 2.62268L13.1781 2.60144L12.991 3.50789C12.9809 3.56012 12.9664 3.60305 12.9473 3.63662C12.9291 3.67001 12.9067 3.69545 12.8801 3.71294C12.8537 3.73142 12.8227 3.74447 12.787 3.75215ZM12.9268 3.45101L12.418 2.76518L12.5221 2.74274L12.9735 3.35552L12.9268 3.45101Z" fill="#535353"/>
<path d="M14.3379 3.17384L14.2488 2.32748C14.2417 2.26064 14.2556 2.20475 14.2905 2.15984C14.3253 2.1149 14.3795 2.0888 14.4531 2.08151C14.4817 2.07866 14.5099 2.07974 14.5374 2.08475C14.565 2.08973 14.5887 2.09945 14.6085 2.11388L14.5821 2.19317C14.5665 2.18219 14.5488 2.17478 14.5291 2.17094C14.5093 2.16614 14.4884 2.16482 14.4664 2.16701C14.4235 2.17127 14.3917 2.18645 14.3713 2.21261C14.3509 2.23874 14.3432 2.27519 14.3481 2.32199L14.3602 2.43653L14.368 2.48351L14.4397 3.16376L14.3379 3.17384ZM14.1329 2.51981L14.124 2.43533L14.5897 2.38922L14.5986 2.4737L14.1329 2.51981Z" fill="#535353"/>
<path d="M15.3543 3.09978C15.2813 3.10059 15.2152 3.08502 15.1561 3.05304C15.0979 3.0201 15.0515 2.97504 15.0169 2.91783C14.9823 2.85966 14.9643 2.79315 14.963 2.71827C14.9616 2.64243 14.9772 2.57553 15.0098 2.51757C15.0424 2.45961 15.0872 2.41398 15.1442 2.38068C15.2012 2.34738 15.2667 2.33034 15.3406 2.3295C15.4155 2.32863 15.482 2.3442 15.5402 2.37618C15.5993 2.40816 15.6457 2.45274 15.6794 2.50998C15.714 2.56719 15.732 2.6337 15.7333 2.70954C15.7346 2.78439 15.719 2.85129 15.6865 2.91024C15.6548 2.9682 15.61 3.01431 15.5521 3.04857C15.4941 3.08187 15.4282 3.09894 15.3543 3.09978ZM15.3526 3.00906C15.4074 3.00843 15.4556 2.99589 15.4974 2.97141C15.5392 2.94597 15.5717 2.91105 15.595 2.86662C15.6191 2.82123 15.6307 2.76927 15.6296 2.71071C15.6286 2.65119 15.6152 2.5995 15.5894 2.55564C15.5647 2.51175 15.5309 2.47806 15.4883 2.45454C15.4456 2.43006 15.3974 2.41812 15.3436 2.41875C15.2899 2.41935 15.2421 2.43237 15.2003 2.45781C15.1585 2.48229 15.1255 2.51673 15.1013 2.56116C15.0771 2.60562 15.0656 2.65758 15.0666 2.7171C15.0677 2.77563 15.0811 2.82732 15.1068 2.87217C15.1326 2.91603 15.1668 2.9502 15.2095 2.97468C15.2521 2.9982 15.2998 3.00966 15.3526 3.00906Z" fill="#535353"/>
<path d="M16.5073 3.11171C16.4346 3.10565 16.3703 3.08393 16.3145 3.04652C16.2596 3.00824 16.2177 2.95898 16.1887 2.89877C16.1596 2.83757 16.148 2.76965 16.1538 2.69501C16.1596 2.61938 16.1815 2.55425 16.2194 2.49962C16.2573 2.44499 16.3062 2.40377 16.3661 2.37602C16.426 2.34824 16.4928 2.33744 16.5664 2.34359C16.6411 2.3498 16.7058 2.37155 16.7607 2.4089C16.8166 2.44631 16.8586 2.49506 16.8867 2.55521C16.9157 2.61542 16.9273 2.68334 16.9215 2.75897C16.9158 2.83361 16.8939 2.89874 16.8559 2.95436C16.819 3.00908 16.7701 3.05075 16.7091 3.0794C16.6483 3.10706 16.581 3.11783 16.5073 3.11171ZM16.5143 3.02126C16.5688 3.02579 16.618 3.01787 16.662 2.99744C16.706 2.97605 16.7416 2.94434 16.7689 2.90231C16.7973 2.85938 16.8137 2.80874 16.8182 2.75036C16.8228 2.69102 16.8143 2.63828 16.7928 2.59217C16.7723 2.54615 16.7419 2.50943 16.7017 2.48201C16.6615 2.4536 16.6146 2.43719 16.561 2.43272C16.5074 2.42825 16.4587 2.43671 16.4146 2.4581C16.3707 2.4785 16.3346 2.5097 16.3063 2.55167C16.2781 2.59361 16.2617 2.64428 16.2571 2.70362C16.2526 2.762 16.2611 2.81471 16.2825 2.86178C16.3039 2.90789 16.3348 2.94512 16.375 2.97353C16.4152 3.00095 16.4617 3.01688 16.5143 3.02126Z" fill="#535353"/>
<path d="M17.6413 3.22863C17.5705 3.21564 17.5096 3.18789 17.4586 3.14535C17.4086 3.10299 17.3726 3.05052 17.3505 2.98791C17.3286 2.92437 17.3243 2.85525 17.3376 2.78058C17.351 2.70495 17.3787 2.64174 17.4209 2.59089C17.4631 2.54007 17.5148 2.50416 17.576 2.48319C17.6384 2.46144 17.7049 2.45709 17.7758 2.47008C17.8409 2.48202 17.8964 2.50731 17.9422 2.54598C17.9889 2.5848 18.0224 2.63535 18.0425 2.6976C18.0638 2.7591 18.0672 2.8305 18.0528 2.91177C18.0386 2.99214 18.0113 3.0579 17.9711 3.10905C17.9308 3.16023 17.882 3.19617 17.8247 3.2169C17.7685 3.23685 17.7074 3.24075 17.6413 3.22863ZM17.6642 3.14061C17.7171 3.1503 17.7664 3.14715 17.8121 3.13116C17.859 3.11436 17.8981 3.0864 17.9294 3.04725C17.9618 3.00732 17.9831 2.95854 17.9934 2.90088C18.0037 2.84226 18.0005 2.78895 17.9837 2.74098C17.9678 2.69316 17.9407 2.65356 17.9024 2.62212C17.8652 2.58993 17.8201 2.56896 17.7673 2.55927C17.7153 2.54976 17.6664 2.55345 17.6205 2.57043C17.5748 2.58642 17.5358 2.61393 17.5035 2.6529C17.4713 2.69187 17.4499 2.74068 17.4396 2.79927C17.4293 2.85693 17.4326 2.91024 17.4492 2.95917C17.4661 3.00714 17.4931 3.04725 17.5303 3.07944C17.5676 3.1107 17.6123 3.13107 17.6642 3.14061ZM17.9301 3.27429L17.9698 3.05028L18.0063 2.90178L18.0188 2.7489L18.1123 2.22144L18.2129 2.23989L18.0264 3.29196L17.9301 3.27429Z" fill="#535353"/>
<path d="M20.2896 3.12351C20.3469 3.14565 20.3924 3.1761 20.4259 3.2148C20.4607 3.25293 20.4811 3.29892 20.4873 3.3528C20.4944 3.40698 20.4849 3.46818 20.459 3.53634L20.3025 3.94674L20.2071 3.90987L20.36 3.50889C20.3884 3.43443 20.3919 3.37146 20.3704 3.31992C20.3502 3.26784 20.3079 3.22935 20.2434 3.20442C20.195 3.18573 20.149 3.17976 20.1053 3.18654C20.0629 3.19278 20.0245 3.21138 19.9901 3.24234C19.9569 3.27273 19.9301 3.31485 19.9095 3.36867L19.7679 3.74004L19.6726 3.70317L19.8255 3.30219C19.8538 3.22773 19.8573 3.16476 19.8359 3.11322C19.8147 3.06081 19.772 3.02214 19.7075 2.99721C19.66 2.97885 19.6145 2.97306 19.5708 2.97987C19.5274 2.98575 19.4886 3.00417 19.4542 3.03513C19.421 3.06552 19.3941 3.10764 19.3737 3.16146L19.2321 3.53283L19.1367 3.49596L19.406 2.78955L19.4973 2.82486L19.4245 3.01593L19.4226 2.97657C19.4635 2.93376 19.5132 2.90715 19.5716 2.8968C19.6313 2.88591 19.6938 2.89308 19.7591 2.91837C19.8281 2.94501 19.8801 2.98518 19.9151 3.03888C19.9504 3.09165 19.9621 3.15534 19.9501 3.22995L19.9181 3.20061C19.9606 3.15117 20.0145 3.11901 20.0797 3.1041C20.1462 3.08865 20.2162 3.0951 20.2896 3.12351Z" fill="#535353"/>
<path d="M21.2444 4.36731L21.3199 4.21836L21.3285 4.19199L21.4549 3.9429C21.484 3.88554 21.4902 3.83313 21.4734 3.78567C21.4574 3.73866 21.4178 3.69897 21.3546 3.66657C21.311 3.64425 21.2659 3.6303 21.2192 3.62472C21.1725 3.61914 21.1294 3.62133 21.0899 3.63129L21.0834 3.54222C21.1324 3.53061 21.1847 3.52938 21.2404 3.53847C21.2965 3.54672 21.351 3.56442 21.404 3.59157C21.4911 3.63621 21.5471 3.6924 21.5719 3.76014C21.5981 3.82743 21.5887 3.90519 21.544 3.99336L21.3315 4.41195L21.2444 4.36731ZM21.0091 4.2549C20.9587 4.22907 20.9189 4.19838 20.8895 4.16286C20.8615 4.12692 20.845 4.08936 20.8401 4.05018C20.8357 4.01016 20.8432 3.97089 20.8628 3.93237C20.8806 3.89727 20.9048 3.86976 20.9353 3.84981C20.9672 3.82947 21.0063 3.82035 21.0526 3.82251C21.1001 3.82422 21.156 3.8415 21.2201 3.87432L21.452 3.99318L21.4175 4.06122L21.1881 3.94371C21.1231 3.91044 21.072 3.8988 21.0346 3.90876C20.9981 3.9192 20.9712 3.94152 20.9538 3.97575C20.9342 4.01427 20.9335 4.05276 20.9517 4.09119C20.9699 4.12962 21.0059 4.16262 21.0597 4.19022C21.111 4.21647 21.1609 4.22745 21.2093 4.22316C21.2591 4.21845 21.3038 4.19823 21.3435 4.16247L21.3321 4.23588C21.2924 4.27164 21.2444 4.29186 21.1883 4.29651C21.1329 4.30158 21.0732 4.28772 21.0091 4.2549Z" fill="#535353"/>
<path d="M21.7686 4.63849L22.1586 3.99084L22.2423 4.04161L22.1361 4.218L22.146 4.18194C22.1938 4.14357 22.2467 4.12455 22.3047 4.12494C22.3633 4.12449 22.4241 4.14346 22.4874 4.18177L22.4361 4.2669C22.4328 4.26489 22.4295 4.26292 22.4262 4.26091C22.4235 4.25812 22.4204 4.25571 22.4172 4.2537C22.349 4.21239 22.283 4.20102 22.2192 4.21956C22.1558 4.23729 22.1011 4.28439 22.0551 4.36089L21.856 4.6915L21.7686 4.63849Z" fill="#535353"/>
<path d="M22.6736 4.95726L22.7532 4.85313L23.386 4.78479L23.4871 4.85883L23.0312 4.91931L22.9558 4.9248L22.6736 4.95726ZM22.4932 5.06781L23.123 4.20471L23.2055 4.26513L22.5756 5.12823L22.4932 5.06781ZM22.9659 5.41419L22.9433 4.91025L23.0434 4.88544L23.067 5.48826L22.9659 5.41419Z" fill="#535353"/>
<path d="M23.6393 5.94497C23.5803 5.89283 23.5393 5.83481 23.5163 5.77091C23.494 5.70629 23.4893 5.64128 23.5022 5.57585C23.5158 5.50967 23.5474 5.44853 23.597 5.3924C23.6465 5.33627 23.7022 5.29712 23.7641 5.27492C23.8266 5.25335 23.8896 5.24879 23.9529 5.26121C24.0176 5.27354 24.0761 5.30291 24.1286 5.34932C24.1819 5.39639 24.2182 5.45027 24.2376 5.51099C24.2583 5.57162 24.2612 5.63438 24.2462 5.69927C24.2318 5.76344 24.1995 5.82395 24.1493 5.8808C24.1461 5.8844 24.1422 5.88803 24.1377 5.89172C24.1345 5.89532 24.131 5.89928 24.1272 5.9036L23.6342 5.46767L23.6848 5.41046L24.1367 5.81012L24.0865 5.8061C24.1227 5.76506 24.1458 5.72078 24.1558 5.67323C24.1671 5.62556 24.1657 5.57939 24.1513 5.53469C24.137 5.48999 24.1101 5.45015 24.0705 5.41517C24.0317 5.38085 23.9889 5.35898 23.942 5.34965C23.8952 5.34029 23.8489 5.34416 23.8031 5.36129C23.7572 5.37842 23.7159 5.40785 23.679 5.44958L23.6685 5.46146C23.6304 5.50463 23.6061 5.55104 23.5955 5.60069C23.5864 5.65025 23.5904 5.69933 23.6077 5.74793C23.6264 5.79644 23.6576 5.84009 23.7015 5.87888C23.736 5.90942 23.7734 5.93159 23.8137 5.94542C23.8547 5.95991 23.8971 5.96408 23.9409 5.95796L23.9402 6.0458C23.8883 6.05375 23.8364 6.0488 23.7843 6.03092C23.7329 6.0137 23.6846 5.98505 23.6393 5.94497Z" fill="#535353"/>
<path d="M24.4251 6.67001C24.3755 6.61919 24.3509 6.56663 24.3516 6.51233C24.3522 6.45803 24.3776 6.4064 24.4277 6.35744L24.9355 5.86133L25.007 5.93444L24.5033 6.42653C24.4717 6.4574 24.455 6.48911 24.4533 6.52166C24.4522 6.55493 24.4664 6.58664 24.496 6.61685C24.5275 6.64913 24.563 6.66683 24.6023 6.67001L24.5749 6.74708C24.5478 6.7454 24.5211 6.7373 24.4948 6.72275C24.4691 6.70886 24.4459 6.69128 24.4251 6.67001ZM24.6606 5.94062L24.7214 5.88125L25.0485 6.21596L24.9877 6.27533L24.6606 5.94062Z" fill="#535353"/>
</svg>
