<svg width="105" height="104" viewBox="0 0 105 104" fill="none" xmlns="http://www.w3.org/2000/svg">
<path d="M17.2953 77.0199V70.8367H2V101.427H17.2953V99.1492M17.2953 77.0199C26.393 68.2482 31.9396 69.535 42.028 74.7419C42.028 74.7419 45.9332 76.0436 49.8384 77.0199C52.8809 77.7805 53.9481 83.0846 52.1164 85.3907M17.2953 77.0199V99.1492M35.194 86.4574C35.194 86.4574 45.2823 86.4574 49.8384 86.4574C50.8447 86.4574 51.5971 86.0445 52.1164 85.3907M17.2953 99.1492C29.825 100.872 38.7737 103.054 46.2586 101.427C53.7435 99.8 78.1508 86.7828 82.7069 84.8302C87.2629 82.8777 84.9849 74.7419 78.4763 77.0199C71.9677 79.2979 52.1164 85.3907 52.1164 85.3907M70.9914 55.8669L61.5539 65.6298L35.194 38.2936C23.4362 26.9125 23.8039 11.9337 33.8922 5.42509C43.9806 -1.08354 51.7514 2.0117 60.2521 11.9337C71.4838 1.49923 84.0086 -0.75806 92.1444 8.02858C100.28 16.8152 97.3513 26.9036 92.1444 33.9955M70.9914 55.8669C68.2524 49.8149 68.0328 46.0502 69.0388 38.9445L84.9849 30.4833L92.1444 33.9955M70.9914 55.8669C75.7486 62.8084 78.7437 66.239 86.2866 69.2096C98.247 63.2947 102.118 57.0436 102.233 38.9445L92.1444 33.9955M80.4289 50.66L84.0086 53.9143L91.1681 46.104" stroke="#4E704F" stroke-width="4" stroke-linecap="round" stroke-linejoin="round"/>
</svg>
