<svg width="25" height="20" viewBox="0 0 25 20" fill="none" xmlns="http://www.w3.org/2000/svg">
<path d="M8.08594 9.81771C8.08594 10.3472 7.66493 10.7509 7.13108 10.7509C6.73177 10.7509 6.43663 10.5252 6.43663 10.0998C6.43663 9.57031 6.84896 9.14496 7.37847 9.14496C7.78212 9.14496 8.08594 9.39236 8.08594 9.81771ZM3.49392 7.71267H3.28993C3.22483 7.71267 3.15972 7.75608 3.15104 7.82986L2.96441 8.98871L3.32031 8.97569C3.79774 8.97569 4.16667 8.91059 4.25347 8.35937C4.3533 7.77778 3.98437 7.71267 3.49392 7.71267ZM15.8203 7.71267H15.625C15.5469 7.71267 15.4948 7.75608 15.4861 7.82986L15.3038 8.98871L15.651 8.97569C16.2153 8.97569 16.6059 8.84549 16.6059 8.19444C16.6016 7.73437 16.1892 7.71267 15.8203 7.71267ZM25 2.08333V17.3611C25 18.5113 24.0668 19.4444 22.9167 19.4444H2.08333C0.93316 19.4444 0 18.5113 0 17.3611V2.08333C0 0.93316 0.93316 0 2.08333 0H22.9167C24.0668 0 25 0.93316 25 2.08333ZM5.56858 7.96007C5.56858 7.04861 4.86545 6.74479 4.0625 6.74479H2.32639C2.21788 6.74479 2.10937 6.8316 2.10069 6.94878L1.38889 11.3802C1.37587 11.467 1.44097 11.5538 1.52778 11.5538H2.35243C2.46962 11.5538 2.57812 11.4279 2.59115 11.3064L2.78646 10.1519C2.82986 9.83941 3.35937 9.94792 3.56771 9.94792C4.80903 9.94792 5.56858 9.21007 5.56858 7.96007ZM9.22309 8.34201H8.39844C8.23351 8.34201 8.22483 8.58073 8.21615 8.69792C7.96441 8.32899 7.59983 8.26389 7.1875 8.26389C6.12413 8.26389 5.3125 9.19705 5.3125 10.2257C5.3125 11.072 5.84201 11.6233 6.68837 11.6233C7.07899 11.6233 7.5651 11.4106 7.83854 11.1068C7.81684 11.1719 7.79514 11.3108 7.79514 11.3759C7.79514 11.4757 7.83854 11.5495 7.93403 11.5495H8.68056C8.79774 11.5495 8.89757 11.4236 8.91927 11.3021L9.36198 8.51128C9.375 8.42882 9.3099 8.34201 9.22309 8.34201ZM10.9809 12.5911L13.7457 8.57205C13.7674 8.55035 13.7674 8.52865 13.7674 8.49826C13.7674 8.42448 13.7023 8.34635 13.6285 8.34635H12.7951C12.7214 8.34635 12.6432 8.38976 12.5998 8.45486L11.4497 10.1476L10.9722 8.51996C10.9375 8.42448 10.842 8.34635 10.7335 8.34635H9.92188C9.84809 8.34635 9.78299 8.42448 9.78299 8.49826C9.78299 8.55035 10.6293 10.9635 10.7031 11.1936C10.5859 11.3585 9.81337 12.4349 9.81337 12.5651C9.81337 12.6432 9.87847 12.704 9.95226 12.704H10.7856C10.8637 12.6997 10.9375 12.6562 10.9809 12.5911ZM17.895 7.96007C17.895 7.04861 17.1918 6.74479 16.3889 6.74479H14.6658C14.5486 6.74479 14.4401 6.8316 14.4271 6.94878L13.724 11.3759C13.7153 11.4627 13.7804 11.5495 13.8628 11.5495H14.7526C14.8394 11.5495 14.9045 11.4844 14.9262 11.4106L15.1215 10.1519C15.1649 9.83941 15.6944 9.94792 15.9028 9.94792C17.1354 9.94792 17.895 9.21007 17.895 7.96007ZM21.5495 8.34201H20.7248C20.5599 8.34201 20.5512 8.58073 20.5382 8.69792C20.2995 8.32899 19.9306 8.26389 19.5095 8.26389C18.4462 8.26389 17.6345 9.19705 17.6345 10.2257C17.6345 11.072 18.1641 11.6233 19.0104 11.6233C19.4141 11.6233 19.9002 11.4106 20.1606 11.1068C20.1476 11.1719 20.1172 11.3108 20.1172 11.3759C20.1172 11.4757 20.1606 11.5495 20.2561 11.5495H21.0069C21.1241 11.5495 21.224 11.4236 21.2457 11.3021L21.6884 8.51128C21.7014 8.42882 21.6363 8.34201 21.5495 8.34201ZM23.6111 6.8967C23.6111 6.80989 23.546 6.74479 23.4722 6.74479H22.6693C22.6042 6.74479 22.5391 6.79687 22.5304 6.86198L21.8273 11.3759L21.8142 11.3976C21.8142 11.4757 21.8793 11.5495 21.9661 11.5495H22.6823C22.7908 11.5495 22.8993 11.4236 22.908 11.3021L23.6111 6.90972V6.8967ZM19.7049 9.14496C19.1753 9.14496 18.763 9.56597 18.763 10.0998C18.763 10.5208 19.0668 10.7509 19.4661 10.7509C19.987 10.7509 20.408 10.3516 20.408 9.81771C20.4123 9.39236 20.1085 9.14496 19.7049 9.14496Z" fill="white"/>
</svg>
