<svg width="8" height="9" viewBox="0 0 8 9" fill="none" xmlns="http://www.w3.org/2000/svg">
<path d="M5.73415 5.18879L5.6078 5.35038H5.81293H6.06763C6.14148 5.35038 6.21126 5.37917 6.26257 5.43048L7.82011 6.98803C7.82017 6.98808 7.82022 6.98814 7.82028 6.98819C7.92683 7.09606 7.92677 7.27043 7.81893 7.37827L7.37671 7.82049L7.37633 7.82087C7.27035 7.92799 7.09645 7.92854 6.9884 7.82049L5.43048 6.26257C5.37917 6.21126 5.35038 6.14148 5.35038 6.06763V5.81293V5.6078L5.18879 5.73415C4.65419 6.15213 3.98193 6.40048 3.25024 6.40048C1.51002 6.40048 0.1 4.99045 0.1 3.25024C0.1 1.51002 1.51002 0.1 3.25024 0.1C4.99045 0.1 6.40048 1.51002 6.40048 3.25024C6.40048 3.98193 6.15213 4.65419 5.73415 5.18879ZM1.15009 3.25024C1.15009 4.41185 2.09029 5.35038 3.25024 5.35038C4.41185 5.35038 5.35038 4.41018 5.35038 3.25024C5.35038 2.08863 4.41018 1.15009 3.25024 1.15009C2.08863 1.15009 1.15009 2.09029 1.15009 3.25024Z" fill="#84BD86" stroke="white" stroke-width="0.2"/>
</svg>
