<svg width="150" height="167" viewBox="0 0 150 167" fill="none" xmlns="http://www.w3.org/2000/svg">
<path d="M43.3379 136.062V125.562H44.2529L51.4979 134.683H51.0179V125.562H52.1129V136.062H51.1979L43.9679 126.942H44.4479V136.062H43.3379ZM54.61 136.062L59.41 125.562H60.505L65.305 136.062H64.135L59.725 126.208H60.175L55.765 136.062H54.61ZM56.5 133.257L56.83 132.357H62.935L63.265 133.257H56.5ZM69.3046 136.062V126.522H65.6146V125.562H74.1046V126.522H70.4146V136.062H69.3046ZM80.6528 136.152C79.3128 136.152 78.2577 135.768 77.4878 134.998C76.7178 134.227 76.3328 133.087 76.3328 131.578V125.562H77.4428V131.533C77.4428 132.772 77.7228 133.687 78.2828 134.277C78.8427 134.868 79.6328 135.163 80.6528 135.163C81.6828 135.163 82.4778 134.868 83.0378 134.277C83.5977 133.687 83.8778 132.772 83.8778 131.533V125.562H84.9578V131.578C84.9578 133.087 84.5727 134.227 83.8028 134.998C83.0427 135.768 81.9927 136.152 80.6528 136.152ZM89.0526 136.062V125.562H92.9826C93.8727 125.562 94.6377 125.707 95.2776 125.998C95.9176 126.277 96.4077 126.688 96.7476 127.228C97.0977 127.758 97.2726 128.403 97.2726 129.163C97.2726 129.903 97.0977 130.543 96.7476 131.083C96.4077 131.613 95.9176 132.022 95.2776 132.312C94.6377 132.592 93.8727 132.732 92.9826 132.732H89.6676L90.1626 132.223V136.062H89.0526ZM96.2226 136.062L93.5226 132.252H94.7226L97.4376 136.062H96.2226ZM90.1626 132.312L89.6676 131.788H92.9526C94.0026 131.788 94.7976 131.557 95.3376 131.098C95.8876 130.638 96.1626 129.993 96.1626 129.163C96.1626 128.323 95.8876 127.672 95.3376 127.212C94.7976 126.753 94.0026 126.522 92.9526 126.522H89.6676L90.1626 125.998V132.312ZM98.9626 136.062L103.763 125.562H104.858L109.658 136.062H108.488L104.078 126.208H104.528L100.118 136.062H98.9626ZM100.853 133.257L101.183 132.357H107.288L107.618 133.257H100.853Z" fill="#4E704F"/>
<path d="M35.4453 119.75V107.938H40.3053C41.3516 107.938 42.2459 108.106 42.9884 108.444C43.7422 108.781 44.3216 109.265 44.7266 109.895C45.1316 110.525 45.3341 111.273 45.3341 112.139C45.3341 113.006 45.1316 113.754 44.7266 114.384C44.3216 115.014 43.7422 115.497 42.9884 115.835C42.2459 116.172 41.3516 116.341 40.3053 116.341H36.6603L37.6391 115.312V119.75H35.4453ZM37.6391 115.548L36.6603 114.485H40.2041C41.1716 114.485 41.8972 114.282 42.3809 113.877C42.8759 113.461 43.1234 112.882 43.1234 112.139C43.1234 111.386 42.8759 110.806 42.3809 110.401C41.8972 109.996 41.1716 109.794 40.2041 109.794H36.6603L37.6391 108.714V115.548ZM48.3686 119.75V107.938H53.2286C54.2748 107.938 55.1692 108.106 55.9117 108.444C56.6654 108.781 57.2448 109.265 57.6498 109.895C58.0548 110.525 58.2573 111.273 58.2573 112.139C58.2573 113.006 58.0548 113.754 57.6498 114.384C57.2448 115.003 56.6654 115.481 55.9117 115.818C55.1692 116.144 54.2748 116.308 53.2286 116.308H49.5836L50.5623 115.312V119.75H48.3686ZM56.0973 119.75L53.1104 115.464H55.4561L58.4598 119.75H56.0973ZM50.5623 115.548L49.5836 114.502H53.1273C54.0948 114.502 54.8204 114.294 55.3042 113.877C55.7992 113.461 56.0467 112.882 56.0467 112.139C56.0467 111.386 55.7992 110.806 55.3042 110.401C54.8204 109.996 54.0948 109.794 53.1273 109.794H49.5836L50.5623 108.714V115.548ZM63.5804 112.848H69.4529V114.654H63.5804V112.848ZM63.7492 117.911H70.4148V119.75H61.5554V107.938H70.1786V109.777H63.7492V117.911ZM77.0324 119.75L71.8687 107.938H74.2481L78.8549 118.619H77.4881L82.1456 107.938H84.3393L79.1924 119.75H77.0324ZM88.4546 112.848H94.3271V114.654H88.4546V112.848ZM88.6233 117.911H95.2889V119.75H86.4296V107.938H95.0527V109.777H88.6233V117.911ZM98.5783 119.75V107.938H100.384L107.792 117.033H106.898V107.938H109.075V119.75H107.269L99.8608 110.654H100.755V119.75H98.5783ZM115.48 119.75V109.794H111.565V107.938H121.588V109.794H117.673V119.75H115.48Z" fill="#4E704F"/>
<path d="M74.3436 90.5274V55.8403C76.3119 44.9771 82.4363 43.1623 94.9391 45.0005C90.3771 55.9978 86.7096 59.5711 77.2342 59.0921M69.285 69.9318C66.7481 64.049 66.8124 60.5191 57 60.8988C60.5156 68.7292 63.3921 70.2809 69.285 70.6544M59.5292 91.25C59.2298 87.0599 60.1438 85.4411 63.8651 85.1527M65.6719 85.1075C65.007 85.097 64.4064 85.1107 63.8651 85.1527M63.8651 85.1527C64.761 81.0031 65.6587 79.3291 69.285 79.6876M88.4353 90.5274C88.7816 86.6328 88.0789 85.0471 84.4607 85.0494M82.6541 85.1527C83.3242 85.085 83.9244 85.0498 84.4607 85.0494M84.4607 85.0494C84.18 80.6049 83.0167 78.9706 77.9569 78.6037" stroke="#4E704F" stroke-width="2" stroke-linecap="round" stroke-linejoin="round"/>
<path d="M149.344 91.25C149.344 132.309 116.059 165.594 75 165.594C33.9411 165.594 0.65625 132.309 0.65625 91.25C0.65625 50.1911 33.9411 16.9062 75 16.9062C116.059 16.9062 149.344 50.1911 149.344 91.25Z" stroke="#4E704F" stroke-width="2"/>
<path d="M145.969 90.875C145.969 130.07 114.195 161.844 75 161.844C35.805 161.844 4.03125 130.07 4.03125 90.875C4.03125 51.68 35.805 19.9062 75 19.9062C114.195 19.9062 145.969 51.68 145.969 90.875Z" stroke="#4E704F"/>
<path d="M19.927 22.9225C20.219 22.673 20.5229 22.5114 20.8394 22.438C21.1567 22.3563 21.4743 22.3765 21.7927 22.499C22.1155 22.6175 22.4255 22.8498 22.7223 23.1961L24.509 25.28L24.0233 25.6955L22.2777 23.6592C21.9535 23.2812 21.6138 23.0785 21.2583 23.051C20.9033 23.015 20.555 23.1434 20.2132 23.4359C19.9578 23.6544 19.7793 23.8979 19.6777 24.1664C19.5766 24.4267 19.5577 24.6995 19.6208 24.985C19.6846 25.2622 19.8335 25.5374 20.0678 25.8108L21.6847 27.6965L21.199 28.112L16.8525 23.0422L17.3381 22.6267L19.4528 25.0932L19.1988 24.9907C19.0902 24.6337 19.0988 24.2748 19.2247 23.9146C19.3465 23.5497 19.5807 23.219 19.927 22.9225Z" fill="#535353"/>
<path d="M28.4758 22.1323C28.0739 22.416 27.662 22.5821 27.2401 22.6303C26.8149 22.6738 26.4121 22.6091 26.0324 22.4368C25.649 22.2594 25.322 21.9799 25.0511 21.5983C24.7803 21.2165 24.6217 20.8219 24.575 20.414C24.5334 20.0027 24.5956 19.6134 24.7618 19.2463C24.9294 18.8707 25.1921 18.5567 25.5498 18.3039C25.9124 18.0478 26.2925 17.9042 26.6898 17.8732C27.0886 17.834 27.4749 17.9064 27.8484 18.0907C28.2183 18.2702 28.5406 18.5531 28.8149 18.9397C28.8322 18.9641 28.8489 18.9928 28.8648 19.0256C28.8821 19.05 28.9012 19.077 28.922 19.1062L25.5628 21.4792L25.2866 21.0904L28.3666 18.9146L28.2703 19.2142C28.0723 18.9352 27.8358 18.7314 27.5604 18.6026C27.2866 18.4655 27.0033 18.4085 26.7106 18.4316C26.4181 18.4547 26.1371 18.5614 25.8674 18.7517C25.6029 18.9386 25.4086 19.1677 25.2847 19.4389C25.1608 19.71 25.118 19.9972 25.1566 20.3006C25.1953 20.6038 25.3153 20.8974 25.5166 21.1813L25.574 21.2619C25.7823 21.5555 26.03 21.7699 26.3173 21.905C26.6058 22.0318 26.9103 22.0774 27.2309 22.0419C27.5529 21.9981 27.8634 21.8705 28.1624 21.6594C28.3976 21.4933 28.5862 21.2975 28.7281 21.0725C28.8749 20.844 28.961 20.592 28.9865 20.3169L29.5201 20.4469C29.4944 20.7735 29.39 21.0825 29.2066 21.3737C29.0281 21.6613 28.7846 21.914 28.4758 22.1323Z" fill="#535353"/>
<path d="M35.1717 17.6505L34.6473 16.7477L34.5382 16.6132L33.6612 15.1035C33.4593 14.7559 33.2054 14.5455 32.8994 14.4725C32.5987 14.3966 32.2559 14.4695 31.8712 14.6914C31.6062 14.8442 31.3797 15.0337 31.1917 15.2597C31.0038 15.4858 30.869 15.7194 30.787 15.9605L30.2979 15.6919C30.4034 15.3956 30.5746 15.1168 30.8114 14.8556C31.0452 14.5894 31.3233 14.3632 31.6456 14.1774C32.1758 13.8718 32.6607 13.7689 33.1002 13.8686C33.542 13.9601 33.9181 14.2732 34.2284 14.8076L35.7018 17.3449L35.1717 17.6505ZM33.7829 18.503C33.4763 18.6799 33.1799 18.7849 32.894 18.818C32.6103 18.8432 32.3574 18.8019 32.1354 18.6945C31.9104 18.5818 31.73 18.4087 31.5944 18.1753C31.4709 17.9625 31.4088 17.7422 31.408 17.514C31.4095 17.2775 31.4947 17.0417 31.663 16.806C31.8337 16.5622 32.114 16.3279 32.5038 16.103L33.9151 15.2895L34.1545 15.702L32.759 16.5065C32.3639 16.7344 32.129 16.9633 32.0545 17.1932C31.985 17.4202 32.0107 17.6375 32.1312 17.8451C32.2668 18.0785 32.4663 18.2128 32.7295 18.248C32.9928 18.2833 33.2881 18.2064 33.6157 18.0176C33.9275 17.838 34.1545 17.6135 34.2967 17.3447C34.441 17.0674 34.4868 16.764 34.4341 16.4344L34.7804 16.7437C34.8331 17.0734 34.7763 17.3936 34.6098 17.7043C34.4484 18.012 34.1729 18.2782 33.7829 18.503Z" fill="#535353"/>
<path d="M38.5082 15.7844L35.5078 9.81838L36.0799 9.53357L39.0801 15.4996L38.5082 15.7844Z" fill="#535353"/>
<path d="M43.4282 13.4936C43.0183 13.664 42.6559 13.6849 42.3411 13.5559C42.0264 13.4269 41.784 13.1606 41.6139 12.7569L39.8914 8.66792L40.4814 8.42249L42.1899 12.4783C42.2972 12.7327 42.4434 12.9024 42.6291 12.9877C42.8203 13.0706 43.0378 13.0614 43.2816 12.96C43.542 12.8516 43.7265 12.6872 43.8354 12.4665L44.2213 12.803C44.1491 12.9564 44.0406 13.0927 43.8953 13.2116C43.7556 13.328 43.5999 13.4222 43.4282 13.4936ZM39.7217 10.4443L39.5156 9.95492L42.2162 8.83161L42.4224 9.32098L39.7217 10.4443Z" fill="#535353"/>
<path d="M47.7244 6.67236C48.0911 6.55854 48.4346 6.53042 48.7549 6.58817C49.0791 6.63842 49.3637 6.78242 49.6088 7.02054C49.8596 7.25679 50.0539 7.59242 50.1911 8.02704L51.0184 10.6445L50.4081 10.8339L49.6 8.27661C49.4498 7.80167 49.2165 7.48142 48.8998 7.31585C48.5873 7.14279 48.216 7.12292 47.7861 7.25623C47.4653 7.35579 47.2052 7.50879 47.0061 7.71504C46.8111 7.91379 46.6864 8.15661 46.6324 8.44348C46.5821 8.72286 46.6114 9.03429 46.7198 9.37742L47.4683 11.7461L46.8581 11.9353L44.8457 5.56779L45.456 5.37842L46.4351 8.47648L46.2415 8.28204C46.2818 7.91154 46.4305 7.58585 46.6877 7.30498C46.9433 7.01829 47.2888 6.80754 47.7244 6.67236Z" fill="#535353"/>
<path d="M54.575 11.4112C54.3581 11.4579 54.1421 11.4676 53.927 11.4402C53.7179 11.4117 53.5274 11.3424 53.3555 11.2319L53.5426 10.7037C53.6846 10.7898 53.8295 10.8476 53.9774 10.8772C54.1325 10.9111 54.2951 10.91 54.4651 10.8732C54.6704 10.829 54.8334 10.7326 54.9541 10.5839C55.082 10.4397 55.1816 10.2095 55.2528 9.89355L55.4021 9.15236L55.4512 9.04061L56.4037 4.35199L57.0196 4.21924L55.85 9.88455C55.7872 10.211 55.6961 10.4793 55.5766 10.6891C55.463 10.8978 55.3231 11.0568 55.1568 11.1661C54.9918 11.2816 54.7979 11.3632 54.575 11.4112ZM55.4487 9.52905L52.2686 5.24261L52.9196 5.10236L55.7405 8.93224L55.4487 9.52905Z" fill="#535353"/>
<path d="M64.2693 7.79659L63.7122 2.50684C63.6682 2.08909 63.7552 1.73978 63.9729 1.45909C64.1907 1.17822 64.5296 1.01509 64.9893 0.969527C65.1684 0.951714 65.3441 0.958465 65.5162 0.989777C65.6885 1.0209 65.8366 1.08165 65.9607 1.17184L65.7957 1.6674C65.6981 1.59878 65.5876 1.55246 65.4644 1.52846C65.3405 1.49846 65.21 1.49022 65.0727 1.5039C64.8041 1.53053 64.6059 1.6254 64.4782 1.7889C64.3507 1.95221 64.3023 2.18003 64.3331 2.47253L64.4084 3.1884L64.4576 3.48203L64.9053 7.73359L64.2693 7.79659ZM62.9881 3.7089L62.9326 3.1809L65.8434 2.89271L65.8989 3.42071L62.9881 3.7089Z" fill="#535353"/>
<path d="M70.6179 7.33363C70.1619 7.33869 69.7491 7.24138 69.3795 7.0415C69.0158 6.83563 68.7259 6.554 68.5095 6.19644C68.2929 5.83288 68.1806 5.41719 68.1724 4.94919C68.1639 4.47519 68.2614 4.05707 68.4651 3.69482C68.6687 3.33257 68.9486 3.04738 69.3051 2.83925C69.6615 2.63113 70.0706 2.52463 70.5326 2.51938C71.0004 2.51394 71.4163 2.61126 71.7799 2.81113C72.1494 3.01101 72.4395 3.28963 72.6499 3.64738C72.8662 4.00494 72.9786 4.42063 72.987 4.89463C72.9952 5.36244 72.8978 5.78057 72.6941 6.14901C72.4965 6.51126 72.2166 6.79944 71.8543 7.01357C71.4921 7.22169 71.0798 7.32838 70.6179 7.33363ZM70.6078 6.76663C70.9498 6.76269 71.2515 6.68432 71.5127 6.53132C71.7741 6.37232 71.9771 6.15407 72.1223 5.87638C72.2732 5.59269 72.3456 5.26794 72.339 4.90194C72.3324 4.52994 72.2486 4.20688 72.0878 3.93275C71.9329 3.65844 71.7221 3.44788 71.4555 3.30088C71.1887 3.14788 70.8874 3.07325 70.5514 3.07719C70.2154 3.08094 69.9169 3.16232 69.6557 3.32132C69.3943 3.47432 69.1881 3.68957 69.0369 3.96726C68.8858 4.24513 68.8136 4.56988 68.8202 4.94188C68.8268 5.30769 68.9104 5.63075 69.0714 5.91107C69.2323 6.18519 69.4461 6.39876 69.7129 6.55175C69.9795 6.69876 70.2778 6.77038 70.6078 6.76663Z" fill="#535353"/>
<path d="M77.8289 7.40825C77.3744 7.37038 76.9728 7.23463 76.6237 7.00082C76.2809 6.76157 76.0188 6.45369 75.8373 6.07738C75.656 5.69488 75.5834 5.27038 75.6192 4.80388C75.6556 4.33119 75.7923 3.92413 76.0293 3.58269C76.2661 3.24125 76.5717 2.98363 76.9462 2.81019C77.3206 2.63657 77.738 2.56907 78.1985 2.6075C78.6648 2.64632 79.0696 2.78225 79.4127 3.01569C79.7617 3.2495 80.0242 3.55419 80.1998 3.93013C80.3813 4.30644 80.4541 4.73094 80.4177 5.20363C80.3817 5.67013 80.245 6.07719 80.0079 6.42482C79.7769 6.76682 79.471 7.02725 79.09 7.20632C78.7098 7.37919 78.2892 7.4465 77.8289 7.40825ZM77.8724 6.84294C78.2133 6.87125 78.521 6.82175 78.7955 6.69407C79.0705 6.56038 79.2935 6.36219 79.4641 6.0995C79.6413 5.83119 79.7439 5.51469 79.772 5.14982C79.8005 4.77894 79.7476 4.44932 79.6134 4.16113C79.4851 3.8735 79.2952 3.644 79.0435 3.47263C78.7923 3.29507 78.4994 3.1925 78.1645 3.16457C77.8297 3.13663 77.5248 3.1895 77.2497 3.32319C76.975 3.45069 76.7495 3.64569 76.5729 3.908C76.3962 4.17013 76.2937 4.48682 76.265 4.85769C76.237 5.22257 76.2899 5.552 76.4236 5.84619C76.5579 6.13438 76.7506 6.36707 77.0017 6.54463C77.2533 6.716 77.5435 6.81557 77.8724 6.84294Z" fill="#535353"/>
<path d="M84.9139 8.13918C84.4712 8.05799 84.0906 7.88455 83.7722 7.61868C83.4597 7.35393 83.2345 7.02599 83.0967 6.63468C82.9598 6.23755 82.9328 5.80555 83.0155 5.33886C83.0993 4.86618 83.2729 4.47111 83.5366 4.1533C83.8 3.83567 84.1231 3.61124 84.5059 3.48017C84.8956 3.34424 85.3116 3.31705 85.7543 3.39824C86.1616 3.47286 86.5082 3.63092 86.7944 3.87261C87.0865 4.11524 87.2956 4.43117 87.4216 4.82024C87.5547 5.20461 87.5761 5.65086 87.4861 6.1588C87.397 6.66111 87.2266 7.07211 86.9749 7.3918C86.7233 7.71167 86.4184 7.9363 86.0603 8.06586C85.7091 8.19055 85.327 8.21493 84.9139 8.13918ZM85.0572 7.58905C85.3875 7.64961 85.6958 7.62992 85.9816 7.52999C86.2744 7.42499 86.5187 7.25024 86.7143 7.00555C86.917 6.75599 87.0503 6.45111 87.1142 6.09074C87.1791 5.72436 87.1589 5.39117 87.0537 5.09136C86.9543 4.79249 86.785 4.54499 86.5456 4.34849C86.3131 4.1473 86.0316 4.01624 85.7012 3.95567C85.3767 3.89624 85.0709 3.9193 84.784 4.02542C84.498 4.12536 84.2543 4.2973 84.0527 4.54086C83.8512 4.78442 83.7179 5.08949 83.653 5.45567C83.5891 5.81605 83.6093 6.14924 83.7134 6.45505C83.8187 6.75486 83.9875 7.00555 84.22 7.20674C84.4534 7.40211 84.7324 7.52942 85.0572 7.58905ZM86.7188 8.42455L86.9669 7.02449L87.1954 6.09636L87.2734 5.14086L87.8579 1.84424L88.4864 1.95955L87.3207 8.53499L86.7188 8.42455Z" fill="#535353"/>
<path d="M101.466 7.48227C101.824 7.62065 102.108 7.81096 102.317 8.05283C102.535 8.29115 102.662 8.57858 102.701 8.91533C102.745 9.25396 102.686 9.63646 102.524 10.0625L101.546 12.6275L100.95 12.397L101.905 9.8909C102.083 9.42552 102.104 9.03196 101.97 8.70983C101.844 8.38433 101.579 8.14377 101.176 7.98796C100.874 7.87115 100.587 7.83383 100.314 7.87621C100.048 7.91521 99.8083 8.03146 99.5932 8.22496C99.3858 8.4149 99.2182 8.67814 99.09 9.01452L98.205 11.3356L97.6091 11.1051L98.5644 8.59902C98.7418 8.13365 98.7635 7.74008 98.6295 7.41796C98.4975 7.09039 98.2301 6.84871 97.8271 6.6929C97.5305 6.57815 97.2457 6.54196 96.9727 6.58452C96.7018 6.62127 96.4589 6.7364 96.2439 6.9299C96.0365 7.11983 95.8687 7.38308 95.7406 7.71946L94.8556 10.0405L94.2598 9.81008L95.9428 5.39502L96.5137 5.61571L96.0585 6.8099L96.0463 6.5639C96.3024 6.29633 96.6129 6.13002 96.978 6.06533C97.3507 5.99727 97.7413 6.04208 98.1498 6.20015C98.5807 6.36665 98.9056 6.61771 99.1245 6.95333C99.3453 7.28315 99.4185 7.68121 99.3433 8.14752L99.1436 7.96415C99.4091 7.65515 99.7458 7.45414 100.154 7.36096C100.569 7.26439 101.007 7.30471 101.466 7.48227Z" fill="#535353"/>
<path d="M107.43 15.2557L107.902 14.3248L107.956 14.16L108.746 12.6031C108.928 12.2446 108.966 11.9171 108.861 11.6205C108.761 11.3266 108.514 11.0786 108.119 10.8761C107.846 10.7366 107.564 10.6494 107.272 10.6145C106.981 10.5797 106.711 10.5933 106.464 10.6556L106.424 10.0989C106.73 10.0263 107.057 10.0187 107.405 10.0755C107.755 10.127 108.096 10.2377 108.427 10.4073C108.972 10.6863 109.322 11.0375 109.477 11.4609C109.64 11.8815 109.582 12.3675 109.303 12.9185L107.974 15.5347L107.43 15.2557ZM105.96 14.5532C105.645 14.3917 105.395 14.1999 105.212 13.9779C105.037 13.7533 104.934 13.5185 104.903 13.2737C104.875 13.0235 104.923 12.7781 105.045 12.5373C105.156 12.318 105.307 12.146 105.499 12.0213C105.698 11.8942 105.942 11.8372 106.231 11.8507C106.528 11.8614 106.877 11.9694 107.278 12.1745L108.728 12.9174L108.512 13.3426L107.078 12.6082C106.672 12.4003 106.353 12.3275 106.119 12.3898C105.891 12.455 105.722 12.5945 105.614 12.8085C105.492 13.0492 105.487 13.2898 105.601 13.53C105.714 13.7702 105.939 13.9764 106.276 14.1489C106.596 14.313 106.908 14.3816 107.211 14.3548C107.522 14.3253 107.801 14.199 108.049 13.9755L107.978 14.4343C107.73 14.6578 107.43 14.7842 107.079 14.8132C106.733 14.8449 106.36 14.7583 105.96 14.5532Z" fill="#535353"/>
<path d="M110.711 16.9508L113.149 12.9031L113.672 13.2203L113.008 14.3228L113.07 14.0975C113.369 13.8576 113.699 13.7388 114.062 13.7412C114.428 13.7384 114.808 13.8569 115.203 14.0963L114.883 14.6285C114.863 14.6159 114.842 14.6035 114.821 14.591C114.804 14.5735 114.785 14.5585 114.765 14.5459C114.339 14.2878 113.926 14.2167 113.527 14.3326C113.131 14.4434 112.79 14.7378 112.502 15.2159L111.257 17.2821L110.711 16.9508Z" fill="#535353"/>
<path d="M116.366 18.9431L116.864 18.2922L120.819 17.8651L121.45 18.3279L118.601 18.7059L118.13 18.7402L116.366 18.9431ZM115.238 19.634L119.175 14.2396L119.69 14.6172L115.754 20.0116L115.238 19.634ZM118.193 21.7989L118.052 18.6492L118.677 18.4942L118.825 22.2618L118.193 21.7989Z" fill="#535353"/>
<path d="M122.401 25.1165C122.032 24.7906 121.776 24.428 121.633 24.0286C121.493 23.6247 121.464 23.2184 121.545 22.8095C121.63 22.3959 121.827 22.0137 122.137 21.6629C122.446 21.3121 122.794 21.0674 123.181 20.9287C123.572 20.7939 123.966 20.7654 124.361 20.843C124.765 20.9201 125.131 21.1036 125.46 21.3937C125.792 21.6879 126.019 22.0246 126.14 22.4041C126.27 22.7831 126.288 23.1753 126.194 23.5809C126.104 23.9819 125.902 24.3601 125.588 24.7154C125.569 24.7379 125.545 24.7606 125.516 24.7837C125.496 24.8062 125.475 24.8309 125.451 24.8579L122.37 22.1334L122.685 21.7758L125.51 24.2737L125.196 24.2486C125.423 23.9921 125.567 23.7153 125.629 23.4181C125.7 23.1202 125.691 22.8316 125.601 22.5522C125.512 22.2729 125.344 22.0239 125.096 21.8052C124.854 21.5907 124.586 21.4541 124.293 21.3957C124.001 21.3372 123.711 21.3614 123.425 21.4685C123.138 21.5756 122.88 21.7595 122.649 22.0203L122.584 22.0945C122.346 22.3644 122.194 22.6544 122.128 22.9647C122.07 23.2745 122.096 23.5812 122.204 23.885C122.32 24.1882 122.515 24.461 122.79 24.7034C123.005 24.8943 123.239 25.0329 123.491 25.1193C123.747 25.2099 124.012 25.2359 124.286 25.1977L124.282 25.7467C123.958 25.7964 123.633 25.7654 123.307 25.6537C122.986 25.5461 122.684 25.367 122.401 25.1165Z" fill="#535353"/>
<path d="M127.315 29.6476C127.005 29.33 126.852 29.0015 126.856 28.6621C126.859 28.3228 127.018 28.0001 127.331 27.6941L130.505 24.5934L130.952 25.0503L127.804 28.1259C127.606 28.3188 127.502 28.517 127.491 28.7204C127.485 28.9284 127.573 29.1266 127.758 29.3154C127.955 29.5171 128.177 29.6278 128.422 29.6476L128.251 30.1293C128.082 30.1188 127.915 30.0682 127.75 29.9773C127.59 29.8905 127.445 29.7806 127.315 29.6476ZM128.787 25.0889L129.167 24.7179L131.211 26.8098L130.831 27.1809L128.787 25.0889Z" fill="#535353"/>
</svg>
