<svg width="25" height="25" viewBox="0 0 25 25" fill="none" xmlns="http://www.w3.org/2000/svg">
<path d="M4.23275 18.2709L3.91514 18.8689L4.35254 19.3859C6.30704 21.6957 9.23248 23.1774 12.5 23.1774C15.7675 23.1774 18.693 21.6957 20.6475 19.3859L21.0849 18.8689L20.7673 18.2709C19.6575 16.1813 17.4752 14.7258 14.9194 14.7258C14.6881 14.7258 14.4688 14.7642 14.2703 14.8246L14.2611 14.8274L14.2519 14.8304C13.6792 15.0169 13.0943 15.129 12.5 15.129C11.9067 15.129 11.3265 15.0172 10.7459 14.8297L10.7378 14.8271L10.7297 14.8246C10.5312 14.7642 10.3119 14.7258 10.0806 14.7258C7.5248 14.7258 5.34249 16.1813 4.23275 18.2709ZM1 12.5C1 6.14704 6.14704 1 12.5 1C18.853 1 24 6.14704 24 12.5C24 18.853 18.853 24 12.5 24C6.14704 24 1 18.853 1 12.5ZM17.9355 9.27419C17.9355 6.27231 15.5019 3.83871 12.5 3.83871C9.49812 3.83871 7.06452 6.27231 7.06452 9.27419C7.06452 12.2761 9.49812 14.7097 12.5 14.7097C15.5019 14.7097 17.9355 12.2761 17.9355 9.27419Z" stroke="#4E704F" stroke-width="2"/>
</svg>
