<svg width="107" height="104" viewBox="0 0 107 104" fill="none" xmlns="http://www.w3.org/2000/svg">
<path d="M10.3367 47.3876C7.20481 47.1744 4.49929 48.1172 3.24964 50.0974C2.13459 51.8643 2.0145 61.7634 2.00156 63.8752C1.99992 64.1437 2.01755 64.4063 2.07607 64.6683C2.54851 66.7838 3.95377 67.919 7.46614 68.7628C8.05241 68.9036 8.67032 68.902 9.27028 68.8421C15.478 68.2215 10.7695 73.3035 21.3274 82.1419C22.0359 82.7351 22.5967 83.4901 22.9182 84.3564L28.5766 99.6029C29.1833 100.724 29.617 101.366 30.5387 101.774C30.9527 101.957 31.4117 102 31.8643 102H35.4642C36.731 102 38.1563 101.597 38.5133 100.382C38.5449 100.274 38.5728 100.162 38.5989 100.044C38.6638 99.7521 38.6862 99.4523 38.6862 99.1528V97.8875C38.6862 94.7315 41.5923 92.3119 44.745 92.4551C52.4072 92.8032 60.9512 91.7862 61.9277 91.7862C62.9768 91.7862 62.7792 97.2862 62.6883 99.0591C62.6697 99.422 62.6771 99.7863 62.7573 100.141C63.0997 101.653 63.7702 101.891 65.0544 102H70.5971C70.9999 102 71.4051 101.96 71.787 101.832C74.0497 101.075 74.7157 99.4465 75.2682 95.8509L77.4663 86.003C77.729 84.8262 78.4172 83.7943 79.3503 83.0304C87.0768 76.7046 91.5754 67.7685 91.8611 59M82.0426 35.2979C82.0426 35.2979 83.3259 34.7087 89.3381 46.9707C91.1899 50.7474 91.9962 54.855 91.8611 59M82.0426 35.2979C82.0426 35.2979 85.3777 25.501 82.6679 17.2674C80.2924 10.0494 73.8318 5.71494 72.2743 4.7555C72.0485 4.61646 71.8319 4.47155 71.6087 4.32849C70.2151 3.43532 64.3092 0.311181 53.4857 3.19745C47.7315 4.7319 44.36 8.67113 42.3968 12.4775C40.5797 16.0004 35.4789 18.1427 31.9408 16.3554C26.3803 13.5465 19.4063 11.5783 16.5911 17.2674C14.531 21.4305 15.5638 26.8837 17.4915 31.8585M82.0426 35.2979C80.5602 38.0409 79.3553 39.2798 76.623 41.0301M24.8246 45.0947C24.8246 45.0947 20.2451 38.9646 17.4915 31.8585M17.4915 31.8585C11.7462 37.3481 10.1858 40.6577 10.3367 46.9707M76.623 41.0301C59.4511 32.9211 51.3919 33.496 38.6862 39.9878M76.623 41.0301L80.0624 45.1989M91.8611 59C91.8611 59 104 56.5 104.5 45.1989C105 33.8979 98.5 31.8585 98.5 31.8585" stroke="#4E704F" stroke-width="4" stroke-linecap="round" stroke-linejoin="round"/>
<path d="M66.9053 22.488C66.9053 23.624 66.4893 24.616 65.6573 25.464C64.8253 26.312 63.7773 26.856 62.5133 27.096V27.696C62.5133 28 62.4013 28.264 62.1773 28.488C61.9533 28.728 61.6893 28.848 61.3853 28.848C61.0813 28.848 60.8253 28.736 60.6172 28.512C60.4093 28.288 60.3053 28.016 60.3053 27.696V27.168C59.1693 27.024 58.1853 26.672 57.3533 26.112C56.5373 25.552 55.9533 24.888 55.6013 24.12C55.4413 23.752 55.3613 23.448 55.3613 23.208C55.3613 22.888 55.4733 22.616 55.6973 22.392C55.9373 22.152 56.2253 22.032 56.5613 22.032C56.8333 22.032 57.0733 22.112 57.2812 22.272C57.4893 22.432 57.6413 22.64 57.7373 22.896C57.9133 23.424 58.2413 23.864 58.7213 24.216C59.2013 24.552 59.7453 24.784 60.3533 24.912L60.4492 19.776C59.1213 19.344 58.0733 18.792 57.3053 18.12C56.5533 17.448 56.1773 16.56 56.1773 15.456C56.1773 14.336 56.5613 13.4 57.3293 12.648C58.0973 11.88 59.1533 11.408 60.4973 11.232V10.728C60.4973 10.424 60.6013 10.16 60.8093 9.936C61.0333 9.696 61.2893 9.576 61.5773 9.576C61.8813 9.576 62.1453 9.696 62.3693 9.936C62.5933 10.16 62.7053 10.424 62.7053 10.728V11.208C64.0013 11.336 65.0093 11.704 65.7293 12.312C66.4653 12.92 66.8333 13.688 66.8333 14.616C66.8333 14.968 66.7213 15.264 66.4973 15.504C66.2733 15.728 66.0013 15.84 65.6813 15.84C65.3933 15.84 65.1453 15.752 64.9373 15.576C64.7453 15.384 64.6333 15.144 64.6013 14.856C64.5533 14.52 64.3533 14.224 64.0013 13.968C63.6653 13.696 63.2173 13.504 62.6573 13.392L62.5613 17.952C65.4573 18.896 66.9053 20.408 66.9053 22.488ZM58.4573 15.288C58.4573 15.704 58.6173 16.072 58.9373 16.392C59.2573 16.696 59.7693 16.992 60.4733 17.28L60.4973 13.416C59.8253 13.528 59.3133 13.752 58.9613 14.088C58.6253 14.408 58.4573 14.808 58.4573 15.288ZM62.5133 24.864C63.1533 24.704 63.6653 24.416 64.0493 24C64.4493 23.584 64.6493 23.12 64.6493 22.608C64.6493 22.192 64.4893 21.808 64.1693 21.456C63.8493 21.088 63.3053 20.752 62.5373 20.448L62.5133 24.864Z" fill="#4E704F"/>
</svg>
