<svg width="124" height="104" viewBox="0 0 124 104" fill="none" xmlns="http://www.w3.org/2000/svg">
<path d="M2 102C51.0108 102 72.9892 102 122 102M73.5 95.75C73.5 99.2031 70.7031 102 67.25 102H54.75C51.2969 102 48.5 99.2031 48.5 95.75V45.75C48.5 42.2969 51.2969 39.5 54.75 39.5H67.25C70.7031 39.5 73.5 42.2969 73.5 45.75V95.75ZM107.5 95.75C107.5 99.2031 104.703 102 101.25 102H88.75C85.2969 102 82.5 99.2031 82.5 95.75V8.25C82.5 4.79687 85.2969 2 88.75 2H101.25C104.703 2 107.5 4.79687 107.5 8.25V95.75ZM40.5 95.75C40.5 99.2031 37.7031 102 34.25 102H21.75C18.2969 102 15.5 99.2031 15.5 95.75V70.75C15.5 67.2969 18.2969 64.5 21.75 64.5H34.25C37.7031 64.5 40.5 67.2969 40.5 70.75V95.75Z" stroke="#4E704F" stroke-width="4" stroke-linecap="round"/>
</svg>
