<svg width="31" height="25" viewBox="0 0 31 25" fill="none" xmlns="http://www.w3.org/2000/svg">
<path d="M28.1206 6.58734L28.1208 6.58772C29.2618 8.4078 28.1517 10.7179 26.3127 10.9643C26.1595 10.9847 26.006 10.9951 25.842 10.9951C24.8549 10.9951 23.9719 10.5624 23.3531 9.87515L22.2354 8.63389L21.121 9.87823C20.5093 10.5613 19.6284 10.9951 18.6349 10.9951C17.6456 10.9951 16.76 10.5607 16.1489 9.87823L15.0314 8.63043L13.914 9.87823C13.3023 10.5613 12.4213 10.9951 11.4279 10.9951C10.4386 10.9951 9.55299 10.5607 8.94182 9.87823L7.8244 8.63043L6.70697 9.87823C6.09524 10.5613 5.21431 10.9951 4.22088 10.9951C4.06158 10.9951 3.90383 10.9847 3.75193 10.9646C1.92291 10.7148 0.814426 8.40447 1.95201 6.58734C1.95207 6.58725 1.95212 6.58717 1.95217 6.58708L5.12096 1.52874L5.12256 1.52619C5.12568 1.52118 5.13184 1.51426 5.14257 1.50832C5.15333 1.50236 5.16403 1.5 5.17303 1.5H24.8996C24.9086 1.5 24.9193 1.50236 24.9301 1.50832C24.9408 1.51426 24.9469 1.52118 24.9501 1.52619L24.9517 1.52874L28.1206 6.58734ZM4.0412 15.5605C4.0813 15.5614 4.12134 15.562 4.16131 15.5623V18.75V20.25H5.66131H24.4113H25.9113V18.75V15.5623C25.9547 15.562 25.998 15.5613 26.0412 15.5603V23.4375C26.0412 23.4733 26.0145 23.5 25.9787 23.5H4.1037C4.06787 23.5 4.0412 23.4733 4.0412 23.4375V15.5605Z" stroke="#4E704F" stroke-width="3"/>
</svg>
